<mxfile host="Electron" modified="2023-12-03T23:39:56.306Z" agent="Mozilla/5.0 (Macintosh; Intel Mac OS X 10_15_7) AppleWebKit/537.36 (KHTML, like Gecko) draw.io/22.1.2 Chrome/114.0.5735.289 Electron/25.9.4 Safari/537.36" etag="Km3Hf9-R_rT4WtjYRoAd" version="22.1.2" type="device" pages="4">
  <diagram name="Login" id="-3id_nPbAriYzA_b6Uzi">
    <mxGraphModel dx="1434" dy="854" grid="1" gridSize="10" guides="1" tooltips="1" connect="1" arrows="1" fold="1" page="1" pageScale="1" pageWidth="850" pageHeight="1100" math="0" shadow="0">
      <root>
        <mxCell id="0" />
        <mxCell id="1" parent="0" />
        <mxCell id="-RMjrXlABVmLTTm-iA70-1" value="User" style="rounded=0;whiteSpace=wrap;html=1;" parent="1" vertex="1">
          <mxGeometry x="40" y="50" width="120" height="60" as="geometry" />
        </mxCell>
        <mxCell id="-RMjrXlABVmLTTm-iA70-2" value="" style="endArrow=none;dashed=1;html=1;dashPattern=1 3;strokeWidth=2;rounded=0;entryX=0.5;entryY=1;entryDx=0;entryDy=0;" parent="1" target="-RMjrXlABVmLTTm-iA70-1" edge="1">
          <mxGeometry width="50" height="50" relative="1" as="geometry">
            <mxPoint x="100" y="690" as="sourcePoint" />
            <mxPoint x="450" y="380" as="targetPoint" />
          </mxGeometry>
        </mxCell>
        <mxCell id="-RMjrXlABVmLTTm-iA70-3" value="Login" style="rounded=0;whiteSpace=wrap;html=1;" parent="1" vertex="1">
          <mxGeometry x="350" y="40" width="120" height="60" as="geometry" />
        </mxCell>
        <mxCell id="-RMjrXlABVmLTTm-iA70-4" value="" style="endArrow=none;dashed=1;html=1;dashPattern=1 3;strokeWidth=2;rounded=0;entryX=0.5;entryY=1;entryDx=0;entryDy=0;" parent="1" edge="1">
          <mxGeometry width="50" height="50" relative="1" as="geometry">
            <mxPoint x="410" y="440" as="sourcePoint" />
            <mxPoint x="409.5" y="100" as="targetPoint" />
          </mxGeometry>
        </mxCell>
        <mxCell id="-RMjrXlABVmLTTm-iA70-5" value="UserRepository" style="rounded=0;whiteSpace=wrap;html=1;" parent="1" vertex="1">
          <mxGeometry x="650" y="40" width="120" height="60" as="geometry" />
        </mxCell>
        <mxCell id="-RMjrXlABVmLTTm-iA70-6" value="" style="endArrow=none;dashed=1;html=1;dashPattern=1 3;strokeWidth=2;rounded=0;entryX=0.5;entryY=1;entryDx=0;entryDy=0;" parent="1" edge="1">
          <mxGeometry width="50" height="50" relative="1" as="geometry">
            <mxPoint x="709.9333333333334" y="230" as="sourcePoint" />
            <mxPoint x="709.5" y="100" as="targetPoint" />
          </mxGeometry>
        </mxCell>
        <mxCell id="-RMjrXlABVmLTTm-iA70-7" value="" style="endArrow=classic;html=1;rounded=0;" parent="1" edge="1">
          <mxGeometry width="50" height="50" relative="1" as="geometry">
            <mxPoint x="95" y="150" as="sourcePoint" />
            <mxPoint x="405" y="150" as="targetPoint" />
          </mxGeometry>
        </mxCell>
        <mxCell id="-RMjrXlABVmLTTm-iA70-8" value="1. Start login" style="edgeLabel;html=1;align=center;verticalAlign=middle;resizable=0;points=[];" parent="-RMjrXlABVmLTTm-iA70-7" connectable="0" vertex="1">
          <mxGeometry x="-0.0848" y="1" relative="1" as="geometry">
            <mxPoint as="offset" />
          </mxGeometry>
        </mxCell>
        <mxCell id="-RMjrXlABVmLTTm-iA70-9" value="" style="endArrow=classic;html=1;rounded=0;" parent="1" edge="1">
          <mxGeometry width="50" height="50" relative="1" as="geometry">
            <mxPoint x="410" y="200" as="sourcePoint" />
            <mxPoint x="700" y="200" as="targetPoint" />
          </mxGeometry>
        </mxCell>
        <mxCell id="-RMjrXlABVmLTTm-iA70-10" value="2. Submit login form" style="edgeLabel;html=1;align=center;verticalAlign=middle;resizable=0;points=[];" parent="-RMjrXlABVmLTTm-iA70-9" connectable="0" vertex="1">
          <mxGeometry x="-0.1853" y="-3" relative="1" as="geometry">
            <mxPoint x="28" y="-3" as="offset" />
          </mxGeometry>
        </mxCell>
        <mxCell id="-RMjrXlABVmLTTm-iA70-16" value="" style="endArrow=none;dashed=1;html=1;dashPattern=1 3;strokeWidth=2;rounded=0;entryX=0.5;entryY=1;entryDx=0;entryDy=0;" parent="1" edge="1">
          <mxGeometry width="50" height="50" relative="1" as="geometry">
            <mxPoint x="710" y="680" as="sourcePoint" />
            <mxPoint x="710" y="270" as="targetPoint" />
          </mxGeometry>
        </mxCell>
        <mxCell id="-RMjrXlABVmLTTm-iA70-22" style="edgeStyle=orthogonalEdgeStyle;rounded=0;orthogonalLoop=1;jettySize=auto;html=1;curved=0;" parent="1" source="-RMjrXlABVmLTTm-iA70-24" target="-RMjrXlABVmLTTm-iA70-24" edge="1">
          <mxGeometry relative="1" as="geometry">
            <mxPoint x="389.9999999999998" y="504.7931034482758" as="targetPoint" />
            <mxPoint x="715" y="185" as="sourcePoint" />
            <Array as="points">
              <mxPoint x="740" y="230" />
              <mxPoint x="740" y="280" />
            </Array>
          </mxGeometry>
        </mxCell>
        <mxCell id="-RMjrXlABVmLTTm-iA70-29" value="3. Verify login info" style="edgeLabel;html=1;align=center;verticalAlign=middle;resizable=0;points=[];" parent="-RMjrXlABVmLTTm-iA70-22" connectable="0" vertex="1">
          <mxGeometry x="-0.1938" y="-2" relative="1" as="geometry">
            <mxPoint x="52" y="5" as="offset" />
          </mxGeometry>
        </mxCell>
        <mxCell id="-RMjrXlABVmLTTm-iA70-24" value="" style="html=1;points=[[0,0,0,0,5],[0,1,0,0,-5],[1,0,0,0,5],[1,1,0,0,-5]];perimeter=orthogonalPerimeter;outlineConnect=0;targetShapes=umlLifeline;portConstraint=eastwest;newEdgeStyle={&quot;curved&quot;:0,&quot;rounded&quot;:0};" parent="1" vertex="1">
          <mxGeometry x="705" y="190" width="10" height="120" as="geometry" />
        </mxCell>
        <mxCell id="-RMjrXlABVmLTTm-iA70-27" value="" style="endArrow=classic;html=1;rounded=0;" parent="1" edge="1">
          <mxGeometry width="50" height="50" relative="1" as="geometry">
            <mxPoint x="410" y="470" as="sourcePoint" />
            <mxPoint x="100" y="470" as="targetPoint" />
          </mxGeometry>
        </mxCell>
        <mxCell id="-RMjrXlABVmLTTm-iA70-42" value="6. Notify user failure" style="edgeLabel;html=1;align=center;verticalAlign=middle;resizable=0;points=[];" parent="-RMjrXlABVmLTTm-iA70-27" connectable="0" vertex="1">
          <mxGeometry x="0.0892" y="-1" relative="1" as="geometry">
            <mxPoint as="offset" />
          </mxGeometry>
        </mxCell>
        <mxCell id="-RMjrXlABVmLTTm-iA70-36" value="" style="endArrow=none;dashed=1;html=1;dashPattern=1 3;strokeWidth=2;rounded=0;entryX=0.5;entryY=1;entryDx=0;entryDy=0;" parent="1" edge="1">
          <mxGeometry width="50" height="50" relative="1" as="geometry">
            <mxPoint x="410" y="690" as="sourcePoint" />
            <mxPoint x="409.9999999999998" y="400" as="targetPoint" />
          </mxGeometry>
        </mxCell>
        <mxCell id="-RMjrXlABVmLTTm-iA70-37" value="" style="endArrow=classic;html=1;rounded=0;entryX=0.5;entryY=0.077;entryDx=0;entryDy=0;entryPerimeter=0;" parent="1" target="-RMjrXlABVmLTTm-iA70-39" edge="1">
          <mxGeometry width="50" height="50" relative="1" as="geometry">
            <mxPoint x="710" y="360" as="sourcePoint" />
            <mxPoint x="410" y="360" as="targetPoint" />
          </mxGeometry>
        </mxCell>
        <mxCell id="-RMjrXlABVmLTTm-iA70-38" value="4. Failure" style="edgeLabel;html=1;align=center;verticalAlign=middle;resizable=0;points=[];" parent="-RMjrXlABVmLTTm-iA70-37" connectable="0" vertex="1">
          <mxGeometry x="0.2543" relative="1" as="geometry">
            <mxPoint x="38" as="offset" />
          </mxGeometry>
        </mxCell>
        <mxCell id="-RMjrXlABVmLTTm-iA70-39" value="" style="html=1;points=[[0,0,0,0,5],[0,1,0,0,-5],[1,0,0,0,5],[1,1,0,0,-5]];perimeter=orthogonalPerimeter;outlineConnect=0;targetShapes=umlLifeline;portConstraint=eastwest;newEdgeStyle={&quot;curved&quot;:0,&quot;rounded&quot;:0};" parent="1" vertex="1">
          <mxGeometry x="405" y="350" width="10" height="130" as="geometry" />
        </mxCell>
        <mxCell id="-RMjrXlABVmLTTm-iA70-40" style="edgeStyle=orthogonalEdgeStyle;rounded=0;orthogonalLoop=1;jettySize=auto;html=1;curved=0;" parent="1" edge="1">
          <mxGeometry relative="1" as="geometry">
            <mxPoint x="415" y="439.98" as="targetPoint" />
            <mxPoint x="415" y="389.98" as="sourcePoint" />
            <Array as="points">
              <mxPoint x="440" y="389.98" />
              <mxPoint x="440" y="439.98" />
            </Array>
          </mxGeometry>
        </mxCell>
        <mxCell id="-RMjrXlABVmLTTm-iA70-41" value="5. Redirect to logiin" style="edgeLabel;html=1;align=center;verticalAlign=middle;resizable=0;points=[];" parent="-RMjrXlABVmLTTm-iA70-40" connectable="0" vertex="1">
          <mxGeometry x="-0.1938" y="-2" relative="1" as="geometry">
            <mxPoint x="52" y="5" as="offset" />
          </mxGeometry>
        </mxCell>
        <mxCell id="-RMjrXlABVmLTTm-iA70-43" value="" style="endArrow=classic;html=1;rounded=0;" parent="1" edge="1">
          <mxGeometry width="50" height="50" relative="1" as="geometry">
            <mxPoint x="415" y="650" as="sourcePoint" />
            <mxPoint x="105" y="650" as="targetPoint" />
          </mxGeometry>
        </mxCell>
        <mxCell id="-RMjrXlABVmLTTm-iA70-44" value="6. Notify user success" style="edgeLabel;html=1;align=center;verticalAlign=middle;resizable=0;points=[];" parent="-RMjrXlABVmLTTm-iA70-43" connectable="0" vertex="1">
          <mxGeometry x="0.0892" y="-1" relative="1" as="geometry">
            <mxPoint as="offset" />
          </mxGeometry>
        </mxCell>
        <mxCell id="-RMjrXlABVmLTTm-iA70-45" value="" style="endArrow=classic;html=1;rounded=0;entryX=0.5;entryY=0.077;entryDx=0;entryDy=0;entryPerimeter=0;" parent="1" target="-RMjrXlABVmLTTm-iA70-47" edge="1">
          <mxGeometry width="50" height="50" relative="1" as="geometry">
            <mxPoint x="710" y="540" as="sourcePoint" />
            <mxPoint x="415" y="540" as="targetPoint" />
          </mxGeometry>
        </mxCell>
        <mxCell id="-RMjrXlABVmLTTm-iA70-46" value="4. Success" style="edgeLabel;html=1;align=center;verticalAlign=middle;resizable=0;points=[];" parent="-RMjrXlABVmLTTm-iA70-45" connectable="0" vertex="1">
          <mxGeometry x="0.2543" relative="1" as="geometry">
            <mxPoint x="38" as="offset" />
          </mxGeometry>
        </mxCell>
        <mxCell id="-RMjrXlABVmLTTm-iA70-48" style="edgeStyle=orthogonalEdgeStyle;rounded=0;orthogonalLoop=1;jettySize=auto;html=1;curved=0;" parent="1" edge="1">
          <mxGeometry relative="1" as="geometry">
            <mxPoint x="420" y="619.98" as="targetPoint" />
            <mxPoint x="420" y="569.98" as="sourcePoint" />
            <Array as="points">
              <mxPoint x="445" y="569.98" />
              <mxPoint x="445" y="619.98" />
            </Array>
          </mxGeometry>
        </mxCell>
        <mxCell id="-RMjrXlABVmLTTm-iA70-49" value="5. Redirect to main page" style="edgeLabel;html=1;align=center;verticalAlign=middle;resizable=0;points=[];" parent="-RMjrXlABVmLTTm-iA70-48" connectable="0" vertex="1">
          <mxGeometry x="-0.1938" y="-2" relative="1" as="geometry">
            <mxPoint x="67" y="10" as="offset" />
          </mxGeometry>
        </mxCell>
        <mxCell id="-RMjrXlABVmLTTm-iA70-50" value="" style="endArrow=none;dashed=1;html=1;dashPattern=1 3;strokeWidth=2;rounded=0;entryX=0.5;entryY=1;entryDx=0;entryDy=0;" parent="1" target="-RMjrXlABVmLTTm-iA70-47" edge="1">
          <mxGeometry width="50" height="50" relative="1" as="geometry">
            <mxPoint x="409.5" y="600" as="sourcePoint" />
            <mxPoint x="409.9999999999998" y="400" as="targetPoint" />
          </mxGeometry>
        </mxCell>
        <mxCell id="-RMjrXlABVmLTTm-iA70-47" value="" style="html=1;points=[[0,0,0,0,5],[0,1,0,0,-5],[1,0,0,0,5],[1,1,0,0,-5]];perimeter=orthogonalPerimeter;outlineConnect=0;targetShapes=umlLifeline;portConstraint=eastwest;newEdgeStyle={&quot;curved&quot;:0,&quot;rounded&quot;:0};" parent="1" vertex="1">
          <mxGeometry x="405" y="530" width="10" height="130" as="geometry" />
        </mxCell>
        <mxCell id="BXrNdQooPLKDjfmQTavq-1" value="&lt;font style=&quot;font-size: 18px;&quot;&gt;LOGIN&lt;/font&gt;" style="text;html=1;strokeColor=none;fillColor=none;align=center;verticalAlign=middle;whiteSpace=wrap;rounded=0;" parent="1" vertex="1">
          <mxGeometry x="20" width="70" height="30" as="geometry" />
        </mxCell>
        <mxCell id="BXrNdQooPLKDjfmQTavq-4" value="" style="endArrow=classic;html=1;rounded=0;" parent="1" edge="1">
          <mxGeometry width="50" height="50" relative="1" as="geometry">
            <mxPoint x="95" y="150" as="sourcePoint" />
            <mxPoint x="405" y="150" as="targetPoint" />
          </mxGeometry>
        </mxCell>
        <mxCell id="BXrNdQooPLKDjfmQTavq-5" value="1. Start login" style="edgeLabel;html=1;align=center;verticalAlign=middle;resizable=0;points=[];" parent="BXrNdQooPLKDjfmQTavq-4" connectable="0" vertex="1">
          <mxGeometry x="-0.0848" y="1" relative="1" as="geometry">
            <mxPoint as="offset" />
          </mxGeometry>
        </mxCell>
        <mxCell id="BXrNdQooPLKDjfmQTavq-11" value="Username" style="text;html=1;strokeColor=none;fillColor=none;align=center;verticalAlign=middle;whiteSpace=wrap;rounded=0;" parent="1" vertex="1">
          <mxGeometry x="210" y="160" width="70" height="30" as="geometry" />
        </mxCell>
        <mxCell id="BXrNdQooPLKDjfmQTavq-12" value="Password" style="text;html=1;strokeColor=none;fillColor=none;align=center;verticalAlign=middle;whiteSpace=wrap;rounded=0;" parent="1" vertex="1">
          <mxGeometry x="215" y="180" width="60" height="30" as="geometry" />
        </mxCell>
      </root>
    </mxGraphModel>
  </diagram>
  <diagram id="MnY7MoESf18QuY0SsfkA" name="MakePayment">
    <mxGraphModel dx="1434" dy="854" grid="1" gridSize="10" guides="1" tooltips="1" connect="1" arrows="1" fold="1" page="1" pageScale="1" pageWidth="850" pageHeight="1100" math="0" shadow="0">
      <root>
        <mxCell id="0" />
        <mxCell id="1" parent="0" />
        <mxCell id="SP7ULnDjkTvQXd8017Q1-1" value="" style="group" vertex="1" connectable="0" parent="1">
          <mxGeometry x="20" y="260" width="810" height="580" as="geometry" />
        </mxCell>
        <mxCell id="NiaWGMuOKFpz_h63_0Lv-1" value="User" style="rounded=0;whiteSpace=wrap;html=1;" parent="SP7ULnDjkTvQXd8017Q1-1" vertex="1">
          <mxGeometry width="107.99999999999999" height="52.72727272727273" as="geometry" />
        </mxCell>
        <mxCell id="NiaWGMuOKFpz_h63_0Lv-2" value="" style="endArrow=none;dashed=1;html=1;dashPattern=1 3;strokeWidth=2;rounded=0;entryX=0.5;entryY=1;entryDx=0;entryDy=0;" parent="SP7ULnDjkTvQXd8017Q1-1" target="NiaWGMuOKFpz_h63_0Lv-1" edge="1">
          <mxGeometry width="50" height="50" relative="1" as="geometry">
            <mxPoint x="53.99999999999999" y="580" as="sourcePoint" />
            <mxPoint x="369" y="298.78787878787875" as="targetPoint" />
          </mxGeometry>
        </mxCell>
        <mxCell id="NiaWGMuOKFpz_h63_0Lv-3" value="PaymentForm" style="rounded=0;whiteSpace=wrap;html=1;" parent="SP7ULnDjkTvQXd8017Q1-1" vertex="1">
          <mxGeometry x="207" width="107.99999999999999" height="52.72727272727273" as="geometry" />
        </mxCell>
        <mxCell id="NiaWGMuOKFpz_h63_0Lv-4" value="" style="endArrow=none;dashed=1;html=1;dashPattern=1 3;strokeWidth=2;rounded=0;entryX=0.5;entryY=1;entryDx=0;entryDy=0;" parent="SP7ULnDjkTvQXd8017Q1-1" edge="1">
          <mxGeometry width="50" height="50" relative="1" as="geometry">
            <mxPoint x="260.99999999999994" y="571.2121212121212" as="sourcePoint" />
            <mxPoint x="260.55" y="52.72727272727273" as="targetPoint" />
          </mxGeometry>
        </mxCell>
        <mxCell id="Ml7SIWnF0im02-LG0k4I-1" value="" style="endArrow=classic;html=1;rounded=0;" parent="SP7ULnDjkTvQXd8017Q1-1" edge="1">
          <mxGeometry width="50" height="50" relative="1" as="geometry">
            <mxPoint x="53.99999999999999" y="96.66666666666667" as="sourcePoint" />
            <mxPoint x="260.99999999999994" y="96.66666666666667" as="targetPoint" />
          </mxGeometry>
        </mxCell>
        <mxCell id="Ml7SIWnF0im02-LG0k4I-2" value="1. Fill payment info" style="edgeLabel;html=1;align=center;verticalAlign=middle;resizable=0;points=[];" parent="Ml7SIWnF0im02-LG0k4I-1" connectable="0" vertex="1">
          <mxGeometry x="-0.0848" y="1" relative="1" as="geometry">
            <mxPoint as="offset" />
          </mxGeometry>
        </mxCell>
        <mxCell id="DYxz7P5SpAr2Q2dHYMRu-1" value="PaymentService" style="rounded=0;whiteSpace=wrap;html=1;" parent="SP7ULnDjkTvQXd8017Q1-1" vertex="1">
          <mxGeometry x="423" width="107.99999999999999" height="52.72727272727273" as="geometry" />
        </mxCell>
        <mxCell id="DYxz7P5SpAr2Q2dHYMRu-3" value="" style="endArrow=none;dashed=1;html=1;dashPattern=1 3;strokeWidth=2;rounded=0;" parent="SP7ULnDjkTvQXd8017Q1-1" source="jSqvqVrgYzbFys1SvwLn-3" edge="1">
          <mxGeometry width="50" height="50" relative="1" as="geometry">
            <mxPoint x="476.55" y="659.090909090909" as="sourcePoint" />
            <mxPoint x="476.99999999999994" y="52.72727272727273" as="targetPoint" />
          </mxGeometry>
        </mxCell>
        <mxCell id="DYxz7P5SpAr2Q2dHYMRu-4" value="" style="endArrow=classic;html=1;rounded=0;" parent="SP7ULnDjkTvQXd8017Q1-1" edge="1">
          <mxGeometry width="50" height="50" relative="1" as="geometry">
            <mxPoint x="260.99999999999994" y="123.030303030303" as="sourcePoint" />
            <mxPoint x="467.99999999999994" y="123.030303030303" as="targetPoint" />
          </mxGeometry>
        </mxCell>
        <mxCell id="DYxz7P5SpAr2Q2dHYMRu-5" value="2. Send payment info to service API" style="edgeLabel;html=1;align=center;verticalAlign=middle;resizable=0;points=[];" parent="DYxz7P5SpAr2Q2dHYMRu-4" connectable="0" vertex="1">
          <mxGeometry x="-0.0848" y="1" relative="1" as="geometry">
            <mxPoint as="offset" />
          </mxGeometry>
        </mxCell>
        <mxCell id="jSqvqVrgYzbFys1SvwLn-1" style="edgeStyle=orthogonalEdgeStyle;rounded=0;orthogonalLoop=1;jettySize=auto;html=1;curved=0;" parent="SP7ULnDjkTvQXd8017Q1-1" source="jSqvqVrgYzbFys1SvwLn-3" target="jSqvqVrgYzbFys1SvwLn-3" edge="1">
          <mxGeometry relative="1" as="geometry">
            <mxPoint x="202.4999999999998" y="373.30303030303025" as="targetPoint" />
            <mxPoint x="494.9999999999999" y="92.27272727272728" as="sourcePoint" />
            <Array as="points">
              <mxPoint x="517.5" y="140.6060606060606" />
              <mxPoint x="517.5" y="175.75757575757575" />
            </Array>
          </mxGeometry>
        </mxCell>
        <mxCell id="jSqvqVrgYzbFys1SvwLn-2" value="3. Verify and process payment" style="edgeLabel;html=1;align=center;verticalAlign=middle;resizable=0;points=[];" parent="jSqvqVrgYzbFys1SvwLn-1" connectable="0" vertex="1">
          <mxGeometry x="-0.1938" y="-2" relative="1" as="geometry">
            <mxPoint x="87" y="11" as="offset" />
          </mxGeometry>
        </mxCell>
        <mxCell id="jSqvqVrgYzbFys1SvwLn-4" value="" style="endArrow=none;dashed=1;html=1;dashPattern=1 3;strokeWidth=2;rounded=0;entryX=0.5;entryY=1;entryDx=0;entryDy=0;" parent="SP7ULnDjkTvQXd8017Q1-1" target="jSqvqVrgYzbFys1SvwLn-3" edge="1">
          <mxGeometry width="50" height="50" relative="1" as="geometry">
            <mxPoint x="476.99999999999994" y="580" as="sourcePoint" />
            <mxPoint x="476.55" y="43.93939393939394" as="targetPoint" />
          </mxGeometry>
        </mxCell>
        <mxCell id="jSqvqVrgYzbFys1SvwLn-3" value="" style="html=1;points=[[0,0,0,0,5],[0,1,0,0,-5],[1,0,0,0,5],[1,1,0,0,-5]];perimeter=orthogonalPerimeter;outlineConnect=0;targetShapes=umlLifeline;portConstraint=eastwest;newEdgeStyle={&quot;curved&quot;:0,&quot;rounded&quot;:0};" parent="SP7ULnDjkTvQXd8017Q1-1" vertex="1">
          <mxGeometry x="472.5" y="105.45454545454545" width="9" height="105.45454545454545" as="geometry" />
        </mxCell>
        <mxCell id="vIt85UruBEnR8gFejykb-1" value="" style="endArrow=classic;html=1;rounded=0;" parent="SP7ULnDjkTvQXd8017Q1-1" edge="1">
          <mxGeometry width="50" height="50" relative="1" as="geometry">
            <mxPoint x="260.99999999999994" y="377.8787878787879" as="sourcePoint" />
            <mxPoint x="53.99999999999999" y="377.8787878787879" as="targetPoint" />
          </mxGeometry>
        </mxCell>
        <mxCell id="vIt85UruBEnR8gFejykb-2" value="6. Notify user failure" style="edgeLabel;html=1;align=center;verticalAlign=middle;resizable=0;points=[];" parent="vIt85UruBEnR8gFejykb-1" connectable="0" vertex="1">
          <mxGeometry x="0.0892" y="-1" relative="1" as="geometry">
            <mxPoint as="offset" />
          </mxGeometry>
        </mxCell>
        <mxCell id="vIt85UruBEnR8gFejykb-3" value="" style="endArrow=none;dashed=1;html=1;dashPattern=1 3;strokeWidth=2;rounded=0;entryX=0.5;entryY=1;entryDx=0;entryDy=0;" parent="SP7ULnDjkTvQXd8017Q1-1" edge="1">
          <mxGeometry width="50" height="50" relative="1" as="geometry">
            <mxPoint x="260.99999999999994" y="571.2121212121212" as="sourcePoint" />
            <mxPoint x="260.9999999999998" y="316.3636363636364" as="targetPoint" />
          </mxGeometry>
        </mxCell>
        <mxCell id="vIt85UruBEnR8gFejykb-4" value="" style="endArrow=classic;html=1;rounded=0;" parent="SP7ULnDjkTvQXd8017Q1-1" edge="1">
          <mxGeometry width="50" height="50" relative="1" as="geometry">
            <mxPoint x="476.99999999999994" y="281.2121212121212" as="sourcePoint" />
            <mxPoint x="269.99999999999994" y="281.2121212121212" as="targetPoint" />
          </mxGeometry>
        </mxCell>
        <mxCell id="vIt85UruBEnR8gFejykb-5" value="4. Failure" style="edgeLabel;html=1;align=center;verticalAlign=middle;resizable=0;points=[];" parent="vIt85UruBEnR8gFejykb-4" connectable="0" vertex="1">
          <mxGeometry x="0.2543" relative="1" as="geometry">
            <mxPoint x="38" as="offset" />
          </mxGeometry>
        </mxCell>
        <mxCell id="vIt85UruBEnR8gFejykb-6" value="" style="html=1;points=[[0,0,0,0,5],[0,1,0,0,-5],[1,0,0,0,5],[1,1,0,0,-5]];perimeter=orthogonalPerimeter;outlineConnect=0;targetShapes=umlLifeline;portConstraint=eastwest;newEdgeStyle={&quot;curved&quot;:0,&quot;rounded&quot;:0};" parent="SP7ULnDjkTvQXd8017Q1-1" vertex="1">
          <mxGeometry x="256.5" y="272.42424242424244" width="9" height="114.24242424242424" as="geometry" />
        </mxCell>
        <mxCell id="vIt85UruBEnR8gFejykb-7" style="edgeStyle=orthogonalEdgeStyle;rounded=0;orthogonalLoop=1;jettySize=auto;html=1;curved=0;" parent="SP7ULnDjkTvQXd8017Q1-1" edge="1">
          <mxGeometry relative="1" as="geometry">
            <mxPoint x="265.5" y="351.49757575757576" as="targetPoint" />
            <mxPoint x="265.5" y="307.55818181818177" as="sourcePoint" />
            <Array as="points">
              <mxPoint x="288" y="307.55818181818177" />
              <mxPoint x="288" y="351.49757575757576" />
            </Array>
          </mxGeometry>
        </mxCell>
        <mxCell id="vIt85UruBEnR8gFejykb-8" value="5. Redirect to payment form" style="edgeLabel;html=1;align=center;verticalAlign=middle;resizable=0;points=[];" parent="vIt85UruBEnR8gFejykb-7" connectable="0" vertex="1">
          <mxGeometry x="-0.1938" y="-2" relative="1" as="geometry">
            <mxPoint x="82" y="10" as="offset" />
          </mxGeometry>
        </mxCell>
        <mxCell id="vIt85UruBEnR8gFejykb-9" value="" style="endArrow=classic;html=1;rounded=0;" parent="SP7ULnDjkTvQXd8017Q1-1" edge="1">
          <mxGeometry width="50" height="50" relative="1" as="geometry">
            <mxPoint x="751.5" y="544.8484848484849" as="sourcePoint" />
            <mxPoint x="53.99999999999999" y="544.8484848484849" as="targetPoint" />
          </mxGeometry>
        </mxCell>
        <mxCell id="vIt85UruBEnR8gFejykb-10" value="6. Send ticket to receipt to user" style="edgeLabel;html=1;align=center;verticalAlign=middle;resizable=0;points=[];" parent="vIt85UruBEnR8gFejykb-9" connectable="0" vertex="1">
          <mxGeometry x="0.0892" y="-1" relative="1" as="geometry">
            <mxPoint as="offset" />
          </mxGeometry>
        </mxCell>
        <mxCell id="vIt85UruBEnR8gFejykb-11" value="" style="endArrow=classic;html=1;rounded=0;" parent="SP7ULnDjkTvQXd8017Q1-1" edge="1">
          <mxGeometry width="50" height="50" relative="1" as="geometry">
            <mxPoint x="476.99999999999994" y="465.75757575757575" as="sourcePoint" />
            <mxPoint x="747" y="465.75757575757575" as="targetPoint" />
          </mxGeometry>
        </mxCell>
        <mxCell id="vIt85UruBEnR8gFejykb-12" value="4. Success" style="edgeLabel;html=1;align=center;verticalAlign=middle;resizable=0;points=[];" parent="vIt85UruBEnR8gFejykb-11" connectable="0" vertex="1">
          <mxGeometry x="0.2543" relative="1" as="geometry">
            <mxPoint x="-44" as="offset" />
          </mxGeometry>
        </mxCell>
        <mxCell id="vIt85UruBEnR8gFejykb-17" value="FlightRepository" style="rounded=0;whiteSpace=wrap;html=1;" parent="SP7ULnDjkTvQXd8017Q1-1" vertex="1">
          <mxGeometry x="701.9999999999999" width="107.99999999999999" height="52.72727272727273" as="geometry" />
        </mxCell>
        <mxCell id="vIt85UruBEnR8gFejykb-19" value="" style="endArrow=none;dashed=1;html=1;dashPattern=1 3;strokeWidth=2;rounded=0;entryX=0.5;entryY=1;entryDx=0;entryDy=0;" parent="SP7ULnDjkTvQXd8017Q1-1" source="vIt85UruBEnR8gFejykb-22" edge="1">
          <mxGeometry width="50" height="50" relative="1" as="geometry">
            <mxPoint x="755.9999999999999" y="694.2424242424242" as="sourcePoint" />
            <mxPoint x="756.1439999999999" y="52.72727272727273" as="targetPoint" />
          </mxGeometry>
        </mxCell>
        <mxCell id="vIt85UruBEnR8gFejykb-20" style="edgeStyle=orthogonalEdgeStyle;rounded=0;orthogonalLoop=1;jettySize=auto;html=1;curved=0;" parent="SP7ULnDjkTvQXd8017Q1-1" source="vIt85UruBEnR8gFejykb-22" target="vIt85UruBEnR8gFejykb-22" edge="1">
          <mxGeometry relative="1" as="geometry">
            <mxPoint x="503.9999999999998" y="716.0303030303029" as="targetPoint" />
            <mxPoint x="796.4999999999999" y="435" as="sourcePoint" />
            <Array as="points">
              <mxPoint x="782.9999999999999" y="483.3333333333333" />
              <mxPoint x="782.9999999999999" y="518.4848484848484" />
            </Array>
          </mxGeometry>
        </mxCell>
        <mxCell id="vIt85UruBEnR8gFejykb-21" value="5. Retrieve &lt;br&gt;plane ticket" style="edgeLabel;html=1;align=center;verticalAlign=middle;resizable=0;points=[];" parent="vIt85UruBEnR8gFejykb-20" connectable="0" vertex="1">
          <mxGeometry x="-0.1938" y="-2" relative="1" as="geometry">
            <mxPoint x="9" y="-33" as="offset" />
          </mxGeometry>
        </mxCell>
        <mxCell id="vIt85UruBEnR8gFejykb-23" value="" style="endArrow=none;dashed=1;html=1;dashPattern=1 3;strokeWidth=2;rounded=0;entryX=0.5;entryY=1;entryDx=0;entryDy=0;" parent="SP7ULnDjkTvQXd8017Q1-1" target="vIt85UruBEnR8gFejykb-22" edge="1">
          <mxGeometry width="50" height="50" relative="1" as="geometry">
            <mxPoint x="755.9999999999999" y="580" as="sourcePoint" />
            <mxPoint x="756.1439999999999" y="52.72727272727273" as="targetPoint" />
          </mxGeometry>
        </mxCell>
        <mxCell id="vIt85UruBEnR8gFejykb-22" value="" style="html=1;points=[[0,0,0,0,5],[0,1,0,0,-5],[1,0,0,0,5],[1,1,0,0,-5]];perimeter=orthogonalPerimeter;outlineConnect=0;targetShapes=umlLifeline;portConstraint=eastwest;newEdgeStyle={&quot;curved&quot;:0,&quot;rounded&quot;:0};" parent="SP7ULnDjkTvQXd8017Q1-1" vertex="1">
          <mxGeometry x="751.5" y="448.1818181818182" width="9" height="105.45454545454545" as="geometry" />
        </mxCell>
      </root>
    </mxGraphModel>
  </diagram>
  <diagram id="NJPx9vfYvJWzl1T3A1oy" name="AddPlane">
    <mxGraphModel dx="1434" dy="854" grid="1" gridSize="10" guides="1" tooltips="1" connect="1" arrows="1" fold="1" page="1" pageScale="1" pageWidth="850" pageHeight="1100" math="0" shadow="0">
      <root>
        <mxCell id="0" />
        <mxCell id="1" parent="0" />
        <mxCell id="WEfC2J3KLP1yCU3-EhOE-1" value="" style="group" vertex="1" connectable="0" parent="1">
          <mxGeometry x="45" y="215" width="760" height="670" as="geometry" />
        </mxCell>
        <mxCell id="TogH0lhuZ9jSWFZpvonb-1" value="SystemAdmin" style="rounded=0;whiteSpace=wrap;html=1;" parent="WEfC2J3KLP1yCU3-EhOE-1" vertex="1">
          <mxGeometry width="94.02061855670102" height="53.6" as="geometry" />
        </mxCell>
        <mxCell id="XudbO6MtVuO7LiEgYz2V-1" value="&lt;font style=&quot;font-size: 10px;&quot;&gt;AircraftInventoryPage&lt;/font&gt;" style="rounded=0;whiteSpace=wrap;html=1;" parent="WEfC2J3KLP1yCU3-EhOE-1" vertex="1">
          <mxGeometry x="219.38144329896906" width="101.85567010309278" height="53.6" as="geometry" />
        </mxCell>
        <mxCell id="XudbO6MtVuO7LiEgYz2V-2" value="AircraftController" style="rounded=0;whiteSpace=wrap;html=1;" parent="WEfC2J3KLP1yCU3-EhOE-1" vertex="1">
          <mxGeometry x="446.5979381443299" width="101.85567010309278" height="53.6" as="geometry" />
        </mxCell>
        <mxCell id="XudbO6MtVuO7LiEgYz2V-3" value="AircraftRepository" style="rounded=0;whiteSpace=wrap;html=1;" parent="WEfC2J3KLP1yCU3-EhOE-1" vertex="1">
          <mxGeometry x="658.1443298969073" width="101.85567010309278" height="53.6" as="geometry" />
        </mxCell>
        <mxCell id="XudbO6MtVuO7LiEgYz2V-4" value="" style="endArrow=none;dashed=1;html=1;dashPattern=1 3;strokeWidth=2;rounded=0;entryX=0.5;entryY=1;entryDx=0;entryDy=0;" parent="WEfC2J3KLP1yCU3-EhOE-1" target="TogH0lhuZ9jSWFZpvonb-1" edge="1">
          <mxGeometry width="50" height="50" relative="1" as="geometry">
            <mxPoint x="47.01030927835051" y="670" as="sourcePoint" />
            <mxPoint x="54.845360824742265" y="98.26666666666667" as="targetPoint" />
          </mxGeometry>
        </mxCell>
        <mxCell id="XudbO6MtVuO7LiEgYz2V-6" value="" style="endArrow=none;dashed=1;html=1;dashPattern=1 3;strokeWidth=2;rounded=0;entryX=0.5;entryY=1;entryDx=0;entryDy=0;" parent="WEfC2J3KLP1yCU3-EhOE-1" edge="1">
          <mxGeometry width="50" height="50" relative="1" as="geometry">
            <mxPoint x="269.84701030927835" y="500.26666666666665" as="sourcePoint" />
            <mxPoint x="269.84701030927835" y="53.6" as="targetPoint" />
          </mxGeometry>
        </mxCell>
        <mxCell id="XudbO6MtVuO7LiEgYz2V-7" value="" style="endArrow=none;dashed=1;html=1;dashPattern=1 3;strokeWidth=2;rounded=0;entryX=0.5;entryY=1;entryDx=0;entryDy=0;" parent="WEfC2J3KLP1yCU3-EhOE-1" edge="1">
          <mxGeometry width="50" height="50" relative="1" as="geometry">
            <mxPoint x="496.7422680412371" y="643.1999999999999" as="sourcePoint" />
            <mxPoint x="497.06350515463913" y="53.6" as="targetPoint" />
          </mxGeometry>
        </mxCell>
        <mxCell id="XudbO6MtVuO7LiEgYz2V-8" value="" style="endArrow=none;dashed=1;html=1;dashPattern=1 3;strokeWidth=2;rounded=0;entryX=0.5;entryY=1;entryDx=0;entryDy=0;" parent="WEfC2J3KLP1yCU3-EhOE-1" edge="1">
          <mxGeometry width="50" height="50" relative="1" as="geometry">
            <mxPoint x="708.2886597938144" y="643.1999999999999" as="sourcePoint" />
            <mxPoint x="708.6098969072165" y="53.6" as="targetPoint" />
          </mxGeometry>
        </mxCell>
        <mxCell id="-6RTsELFiG6msN8a4Exp-1" value="" style="endArrow=classic;html=1;rounded=0;" parent="WEfC2J3KLP1yCU3-EhOE-1" edge="1">
          <mxGeometry width="50" height="50" relative="1" as="geometry">
            <mxPoint x="47.01030927835051" y="98.26666666666667" as="sourcePoint" />
            <mxPoint x="266.3917525773196" y="98.26666666666667" as="targetPoint" />
          </mxGeometry>
        </mxCell>
        <mxCell id="-6RTsELFiG6msN8a4Exp-2" value="1. Browse for aircraft" style="edgeLabel;html=1;align=center;verticalAlign=middle;resizable=0;points=[];" parent="-6RTsELFiG6msN8a4Exp-1" connectable="0" vertex="1">
          <mxGeometry x="-0.0848" y="1" relative="1" as="geometry">
            <mxPoint as="offset" />
          </mxGeometry>
        </mxCell>
        <mxCell id="-6RTsELFiG6msN8a4Exp-3" value="" style="endArrow=classic;html=1;rounded=0;" parent="WEfC2J3KLP1yCU3-EhOE-1" edge="1">
          <mxGeometry width="50" height="50" relative="1" as="geometry">
            <mxPoint x="274.22680412371136" y="134" as="sourcePoint" />
            <mxPoint x="493.6082474226804" y="134" as="targetPoint" />
          </mxGeometry>
        </mxCell>
        <mxCell id="-6RTsELFiG6msN8a4Exp-4" value="2. Request for aircraft" style="edgeLabel;html=1;align=center;verticalAlign=middle;resizable=0;points=[];" parent="-6RTsELFiG6msN8a4Exp-3" connectable="0" vertex="1">
          <mxGeometry x="-0.0848" y="1" relative="1" as="geometry">
            <mxPoint as="offset" />
          </mxGeometry>
        </mxCell>
        <mxCell id="-6RTsELFiG6msN8a4Exp-5" value="" style="endArrow=classic;html=1;rounded=0;" parent="WEfC2J3KLP1yCU3-EhOE-1" edge="1">
          <mxGeometry width="50" height="50" relative="1" as="geometry">
            <mxPoint x="501.44329896907215" y="178.66666666666666" as="sourcePoint" />
            <mxPoint x="705.1546391752577" y="178.66666666666666" as="targetPoint" />
          </mxGeometry>
        </mxCell>
        <mxCell id="-6RTsELFiG6msN8a4Exp-6" value="3. Request all aircraft" style="edgeLabel;html=1;align=center;verticalAlign=middle;resizable=0;points=[];" parent="-6RTsELFiG6msN8a4Exp-5" connectable="0" vertex="1">
          <mxGeometry x="-0.0848" y="1" relative="1" as="geometry">
            <mxPoint as="offset" />
          </mxGeometry>
        </mxCell>
        <mxCell id="-6RTsELFiG6msN8a4Exp-7" value="" style="endArrow=classic;html=1;rounded=0;" parent="WEfC2J3KLP1yCU3-EhOE-1" edge="1">
          <mxGeometry width="50" height="50" relative="1" as="geometry">
            <mxPoint x="705.1546391752577" y="232.26666666666665" as="sourcePoint" />
            <mxPoint x="501.44329896907215" y="232.26666666666665" as="targetPoint" />
          </mxGeometry>
        </mxCell>
        <mxCell id="-6RTsELFiG6msN8a4Exp-8" value="5. Respond with aircraft" style="edgeLabel;html=1;align=center;verticalAlign=middle;resizable=0;points=[];" parent="-6RTsELFiG6msN8a4Exp-7" connectable="0" vertex="1">
          <mxGeometry x="0.1282" y="2" relative="1" as="geometry">
            <mxPoint x="7" y="-2" as="offset" />
          </mxGeometry>
        </mxCell>
        <mxCell id="-qslB4CPSpMmGaO0FymZ-1" style="edgeStyle=orthogonalEdgeStyle;rounded=0;orthogonalLoop=1;jettySize=auto;html=1;curved=0;" parent="WEfC2J3KLP1yCU3-EhOE-1" source="-qslB4CPSpMmGaO0FymZ-3" target="-qslB4CPSpMmGaO0FymZ-3" edge="1">
          <mxGeometry relative="1" as="geometry">
            <mxPoint x="470.10309278350496" y="424.14850574712636" as="targetPoint" />
            <mxPoint x="724.7422680412371" y="138.46666666666667" as="sourcePoint" />
            <Array as="points">
              <mxPoint x="744.3298969072165" y="187.6" />
              <mxPoint x="744.3298969072165" y="223.33333333333331" />
            </Array>
          </mxGeometry>
        </mxCell>
        <mxCell id="-qslB4CPSpMmGaO0FymZ-2" value="4. Query &lt;br&gt;for air craft" style="edgeLabel;html=1;align=center;verticalAlign=middle;resizable=0;points=[];" parent="-qslB4CPSpMmGaO0FymZ-1" connectable="0" vertex="1">
          <mxGeometry x="-0.1938" y="-2" relative="1" as="geometry">
            <mxPoint x="33" y="11" as="offset" />
          </mxGeometry>
        </mxCell>
        <mxCell id="-qslB4CPSpMmGaO0FymZ-3" value="" style="html=1;points=[[0,0,0,0,5],[0,1,0,0,-5],[1,0,0,0,5],[1,1,0,0,-5]];perimeter=orthogonalPerimeter;outlineConnect=0;targetShapes=umlLifeline;portConstraint=eastwest;newEdgeStyle={&quot;curved&quot;:0,&quot;rounded&quot;:0};" parent="WEfC2J3KLP1yCU3-EhOE-1" vertex="1">
          <mxGeometry x="705.1546391752577" y="151.86666666666667" width="7.835051546391752" height="107.2" as="geometry" />
        </mxCell>
        <mxCell id="-qslB4CPSpMmGaO0FymZ-4" value="" style="endArrow=classic;html=1;rounded=0;" parent="WEfC2J3KLP1yCU3-EhOE-1" edge="1">
          <mxGeometry width="50" height="50" relative="1" as="geometry">
            <mxPoint x="485.77319587628864" y="259.06666666666666" as="sourcePoint" />
            <mxPoint x="274.22680412371136" y="259.06666666666666" as="targetPoint" />
          </mxGeometry>
        </mxCell>
        <mxCell id="-qslB4CPSpMmGaO0FymZ-5" value="6. Populate aircraft on page" style="edgeLabel;html=1;align=center;verticalAlign=middle;resizable=0;points=[];" parent="-qslB4CPSpMmGaO0FymZ-4" connectable="0" vertex="1">
          <mxGeometry x="0.1282" y="2" relative="1" as="geometry">
            <mxPoint x="7" y="-2" as="offset" />
          </mxGeometry>
        </mxCell>
        <mxCell id="-qslB4CPSpMmGaO0FymZ-8" value="" style="endArrow=classic;html=1;rounded=0;" parent="WEfC2J3KLP1yCU3-EhOE-1" edge="1">
          <mxGeometry width="50" height="50" relative="1" as="geometry">
            <mxPoint x="47.01030927835051" y="437.73333333333335" as="sourcePoint" />
            <mxPoint x="368.24742268041234" y="437.73333333333335" as="targetPoint" />
          </mxGeometry>
        </mxCell>
        <mxCell id="-qslB4CPSpMmGaO0FymZ-9" value="1. Request to add plane" style="edgeLabel;html=1;align=center;verticalAlign=middle;resizable=0;points=[];" parent="-qslB4CPSpMmGaO0FymZ-8" connectable="0" vertex="1">
          <mxGeometry x="-0.0848" y="1" relative="1" as="geometry">
            <mxPoint as="offset" />
          </mxGeometry>
        </mxCell>
        <mxCell id="-qslB4CPSpMmGaO0FymZ-11" value="AddAircraftPage" style="rounded=0;whiteSpace=wrap;html=1;" parent="WEfC2J3KLP1yCU3-EhOE-1" vertex="1">
          <mxGeometry x="321.2371134020619" y="330.5333333333333" width="94.02061855670102" height="53.6" as="geometry" />
        </mxCell>
        <mxCell id="-qslB4CPSpMmGaO0FymZ-12" value="" style="endArrow=none;dashed=1;html=1;dashPattern=1 3;strokeWidth=2;rounded=0;entryX=0.5;entryY=1;entryDx=0;entryDy=0;" parent="WEfC2J3KLP1yCU3-EhOE-1" edge="1">
          <mxGeometry width="50" height="50" relative="1" as="geometry">
            <mxPoint x="368.24742268041234" y="661.0666666666666" as="sourcePoint" />
            <mxPoint x="367.91835051546394" y="384.1333333333333" as="targetPoint" />
          </mxGeometry>
        </mxCell>
        <mxCell id="-qslB4CPSpMmGaO0FymZ-13" value="" style="endArrow=classic;html=1;rounded=0;" parent="WEfC2J3KLP1yCU3-EhOE-1" edge="1">
          <mxGeometry width="50" height="50" relative="1" as="geometry">
            <mxPoint x="368.24742268041234" y="473.46666666666664" as="sourcePoint" />
            <mxPoint x="493.6082474226804" y="473.46666666666664" as="targetPoint" />
          </mxGeometry>
        </mxCell>
        <mxCell id="-qslB4CPSpMmGaO0FymZ-14" value="2. Post request to controller" style="edgeLabel;html=1;align=center;verticalAlign=middle;resizable=0;points=[];" parent="-qslB4CPSpMmGaO0FymZ-13" connectable="0" vertex="1">
          <mxGeometry x="-0.0848" y="1" relative="1" as="geometry">
            <mxPoint as="offset" />
          </mxGeometry>
        </mxCell>
        <mxCell id="-qslB4CPSpMmGaO0FymZ-16" value="" style="endArrow=classic;html=1;rounded=0;" parent="WEfC2J3KLP1yCU3-EhOE-1" edge="1">
          <mxGeometry width="50" height="50" relative="1" as="geometry">
            <mxPoint x="501.44329896907215" y="518.1333333333333" as="sourcePoint" />
            <mxPoint x="705.1546391752577" y="518.1333333333333" as="targetPoint" />
          </mxGeometry>
        </mxCell>
        <mxCell id="-qslB4CPSpMmGaO0FymZ-17" value="3. Write to database" style="edgeLabel;html=1;align=center;verticalAlign=middle;resizable=0;points=[];" parent="-qslB4CPSpMmGaO0FymZ-16" connectable="0" vertex="1">
          <mxGeometry x="-0.0848" y="1" relative="1" as="geometry">
            <mxPoint as="offset" />
          </mxGeometry>
        </mxCell>
        <mxCell id="-qslB4CPSpMmGaO0FymZ-18" value="" style="endArrow=classic;html=1;rounded=0;" parent="WEfC2J3KLP1yCU3-EhOE-1" edge="1">
          <mxGeometry width="50" height="50" relative="1" as="geometry">
            <mxPoint x="705.1546391752577" y="616.4" as="sourcePoint" />
            <mxPoint x="47.01030927835051" y="616.4" as="targetPoint" />
          </mxGeometry>
        </mxCell>
        <mxCell id="-qslB4CPSpMmGaO0FymZ-19" value="5. Respond with success code and notify user" style="edgeLabel;html=1;align=center;verticalAlign=middle;resizable=0;points=[];" parent="-qslB4CPSpMmGaO0FymZ-18" connectable="0" vertex="1">
          <mxGeometry x="0.1282" y="2" relative="1" as="geometry">
            <mxPoint x="7" y="-2" as="offset" />
          </mxGeometry>
        </mxCell>
      </root>
    </mxGraphModel>
  </diagram>
  <diagram id="c9XmBF-n-xDPd8tjlqWe" name="ChooseTicket">
    <mxGraphModel dx="1687" dy="1005" grid="1" gridSize="10" guides="1" tooltips="1" connect="1" arrows="1" fold="1" page="1" pageScale="1" pageWidth="850" pageHeight="1100" math="0" shadow="0">
      <root>
        <mxCell id="0" />
        <mxCell id="1" parent="0" />
        <mxCell id="fJazLv7FtPlTyMMEbzki-1" value="" style="group" vertex="1" connectable="0" parent="1">
          <mxGeometry y="225" width="840" height="650" as="geometry" />
        </mxCell>
        <mxCell id="fHEGpHGB6Da7KqynVkgl-1" value="User" style="rounded=0;whiteSpace=wrap;html=1;" parent="fJazLv7FtPlTyMMEbzki-1" vertex="1">
          <mxGeometry y="8.904109589041097" width="87.65217391304347" height="53.42465753424658" as="geometry" />
        </mxCell>
        <mxCell id="QDQKq2ZhBqnD6lNR0ldC-1" value="" style="endArrow=none;dashed=1;html=1;dashPattern=1 3;strokeWidth=2;rounded=0;entryX=0.5;entryY=1;entryDx=0;entryDy=0;" parent="fJazLv7FtPlTyMMEbzki-1" edge="1">
          <mxGeometry width="50" height="50" relative="1" as="geometry">
            <mxPoint x="43.46086956521739" y="650" as="sourcePoint" />
            <mxPoint x="43.760347826086935" y="62.32876712328768" as="targetPoint" />
          </mxGeometry>
        </mxCell>
        <mxCell id="QDQKq2ZhBqnD6lNR0ldC-2" value="FlightView" style="rounded=0;whiteSpace=wrap;html=1;" parent="fJazLv7FtPlTyMMEbzki-1" vertex="1">
          <mxGeometry x="175.30434782608694" y="8.904109589041097" width="87.65217391304347" height="53.42465753424658" as="geometry" />
        </mxCell>
        <mxCell id="QDQKq2ZhBqnD6lNR0ldC-3" value="" style="endArrow=none;dashed=1;html=1;dashPattern=1 3;strokeWidth=2;rounded=0;entryX=0.5;entryY=1;entryDx=0;entryDy=0;" parent="fJazLv7FtPlTyMMEbzki-1" edge="1">
          <mxGeometry width="50" height="50" relative="1" as="geometry">
            <mxPoint x="218.76521739130436" y="650" as="sourcePoint" />
            <mxPoint x="219.0646956521739" y="62.32876712328768" as="targetPoint" />
          </mxGeometry>
        </mxCell>
        <mxCell id="KBk56GGZ75NBHCf4vcid-1" value="FlightController" style="rounded=0;whiteSpace=wrap;html=1;" parent="fJazLv7FtPlTyMMEbzki-1" vertex="1">
          <mxGeometry x="343.30434782608694" y="8.904109589041097" width="87.65217391304347" height="53.42465753424658" as="geometry" />
        </mxCell>
        <mxCell id="KBk56GGZ75NBHCf4vcid-2" value="" style="endArrow=none;dashed=1;html=1;dashPattern=1 3;strokeWidth=2;rounded=0;entryX=0.5;entryY=1;entryDx=0;entryDy=0;" parent="fJazLv7FtPlTyMMEbzki-1" edge="1">
          <mxGeometry width="50" height="50" relative="1" as="geometry">
            <mxPoint x="386.76521739130436" y="650" as="sourcePoint" />
            <mxPoint x="387.0646956521739" y="62.32876712328768" as="targetPoint" />
          </mxGeometry>
        </mxCell>
        <mxCell id="KBk56GGZ75NBHCf4vcid-3" value="FlightRepository" style="rounded=0;whiteSpace=wrap;html=1;" parent="fJazLv7FtPlTyMMEbzki-1" vertex="1">
          <mxGeometry x="752.3478260869566" width="87.65217391304347" height="53.42465753424658" as="geometry" />
        </mxCell>
        <mxCell id="KBk56GGZ75NBHCf4vcid-4" value="" style="endArrow=none;dashed=1;html=1;dashPattern=1 3;strokeWidth=2;rounded=0;entryX=0.5;entryY=1;entryDx=0;entryDy=0;" parent="fJazLv7FtPlTyMMEbzki-1" source="0Waxi0UtvHIm_t0E4VKd-14" edge="1">
          <mxGeometry width="50" height="50" relative="1" as="geometry">
            <mxPoint x="795.8086956521739" y="641.0958904109589" as="sourcePoint" />
            <mxPoint x="796.1081739130434" y="53.42465753424658" as="targetPoint" />
          </mxGeometry>
        </mxCell>
        <mxCell id="KBk56GGZ75NBHCf4vcid-5" value="SeatView" style="rounded=0;whiteSpace=wrap;html=1;" parent="fJazLv7FtPlTyMMEbzki-1" vertex="1">
          <mxGeometry x="467.47826086956525" y="347.26027397260276" width="87.65217391304347" height="53.42465753424658" as="geometry" />
        </mxCell>
        <mxCell id="KBk56GGZ75NBHCf4vcid-6" value="" style="endArrow=none;dashed=1;html=1;dashPattern=1 3;strokeWidth=2;rounded=0;entryX=0.5;entryY=1;entryDx=0;entryDy=0;" parent="fJazLv7FtPlTyMMEbzki-1" edge="1">
          <mxGeometry width="50" height="50" relative="1" as="geometry">
            <mxPoint x="511.304347826087" y="650" as="sourcePoint" />
            <mxPoint x="511.1728695652173" y="400.68493150684935" as="targetPoint" />
          </mxGeometry>
        </mxCell>
        <mxCell id="KBk56GGZ75NBHCf4vcid-7" value="SeatController" style="rounded=0;whiteSpace=wrap;html=1;" parent="fJazLv7FtPlTyMMEbzki-1" vertex="1">
          <mxGeometry x="620.8695652173914" y="347.26027397260276" width="87.65217391304347" height="53.42465753424658" as="geometry" />
        </mxCell>
        <mxCell id="KBk56GGZ75NBHCf4vcid-8" value="" style="endArrow=none;dashed=1;html=1;dashPattern=1 3;strokeWidth=2;rounded=0;entryX=0.5;entryY=1;entryDx=0;entryDy=0;" parent="fJazLv7FtPlTyMMEbzki-1" edge="1">
          <mxGeometry width="50" height="50" relative="1" as="geometry">
            <mxPoint x="664.6956521739131" y="650" as="sourcePoint" />
            <mxPoint x="664.5641739130434" y="400.68493150684935" as="targetPoint" />
          </mxGeometry>
        </mxCell>
        <mxCell id="KBk56GGZ75NBHCf4vcid-12" value="" style="endArrow=classic;html=1;rounded=0;" parent="fJazLv7FtPlTyMMEbzki-1" edge="1">
          <mxGeometry width="50" height="50" relative="1" as="geometry">
            <mxPoint x="43.826086956521735" y="115.75342465753425" as="sourcePoint" />
            <mxPoint x="219.1304347826087" y="115.75342465753425" as="targetPoint" />
          </mxGeometry>
        </mxCell>
        <mxCell id="KBk56GGZ75NBHCf4vcid-13" value="1. View flight" style="edgeLabel;html=1;align=center;verticalAlign=middle;resizable=0;points=[];" parent="KBk56GGZ75NBHCf4vcid-12" connectable="0" vertex="1">
          <mxGeometry x="-0.3667" y="-1" relative="1" as="geometry">
            <mxPoint x="24" as="offset" />
          </mxGeometry>
        </mxCell>
        <mxCell id="KBk56GGZ75NBHCf4vcid-14" value="" style="endArrow=classic;html=1;rounded=0;" parent="fJazLv7FtPlTyMMEbzki-1" edge="1">
          <mxGeometry width="50" height="50" relative="1" as="geometry">
            <mxPoint x="219.1304347826087" y="160.27397260273972" as="sourcePoint" />
            <mxPoint x="387.1304347826087" y="160.27397260273972" as="targetPoint" />
          </mxGeometry>
        </mxCell>
        <mxCell id="KBk56GGZ75NBHCf4vcid-15" value="2. Request available flgihts" style="edgeLabel;html=1;align=center;verticalAlign=middle;resizable=0;points=[];" parent="KBk56GGZ75NBHCf4vcid-14" connectable="0" vertex="1">
          <mxGeometry x="-0.3667" y="-1" relative="1" as="geometry">
            <mxPoint x="47" as="offset" />
          </mxGeometry>
        </mxCell>
        <mxCell id="KBk56GGZ75NBHCf4vcid-16" value="" style="endArrow=classic;html=1;rounded=0;" parent="fJazLv7FtPlTyMMEbzki-1" target="0Waxi0UtvHIm_t0E4VKd-3" edge="1">
          <mxGeometry width="50" height="50" relative="1" as="geometry">
            <mxPoint x="387.1304347826087" y="195.8904109589041" as="sourcePoint" />
            <mxPoint x="774.2608695652174" y="195.8904109589041" as="targetPoint" />
          </mxGeometry>
        </mxCell>
        <mxCell id="KBk56GGZ75NBHCf4vcid-17" value="3. Query DB for flights" style="edgeLabel;html=1;align=center;verticalAlign=middle;resizable=0;points=[];" parent="KBk56GGZ75NBHCf4vcid-16" connectable="0" vertex="1">
          <mxGeometry x="-0.3667" y="-1" relative="1" as="geometry">
            <mxPoint x="47" as="offset" />
          </mxGeometry>
        </mxCell>
        <mxCell id="0Waxi0UtvHIm_t0E4VKd-1" style="edgeStyle=orthogonalEdgeStyle;rounded=0;orthogonalLoop=1;jettySize=auto;html=1;curved=0;" parent="fJazLv7FtPlTyMMEbzki-1" source="0Waxi0UtvHIm_t0E4VKd-3" target="0Waxi0UtvHIm_t0E4VKd-3" edge="1">
          <mxGeometry relative="1" as="geometry">
            <mxPoint x="569.7391304347825" y="422.76098252243736" as="targetPoint" />
            <mxPoint x="807.1304347826087" y="138.013698630137" as="sourcePoint" />
            <Array as="points">
              <mxPoint x="825.3913043478261" y="186.986301369863" />
              <mxPoint x="825.3913043478261" y="222.60273972602738" />
            </Array>
          </mxGeometry>
        </mxCell>
        <mxCell id="0Waxi0UtvHIm_t0E4VKd-2" value="4. Select &lt;br&gt;all flights" style="edgeLabel;html=1;align=center;verticalAlign=middle;resizable=0;points=[];" parent="0Waxi0UtvHIm_t0E4VKd-1" connectable="0" vertex="1">
          <mxGeometry x="-0.1938" y="-2" relative="1" as="geometry">
            <mxPoint x="-3" y="-30" as="offset" />
          </mxGeometry>
        </mxCell>
        <mxCell id="0Waxi0UtvHIm_t0E4VKd-3" value="" style="html=1;points=[[0,0,0,0,5],[0,1,0,0,-5],[1,0,0,0,5],[1,1,0,0,-5]];perimeter=orthogonalPerimeter;outlineConnect=0;targetShapes=umlLifeline;portConstraint=eastwest;newEdgeStyle={&quot;curved&quot;:0,&quot;rounded&quot;:0};" parent="fJazLv7FtPlTyMMEbzki-1" vertex="1">
          <mxGeometry x="788.8695652173913" y="151.36986301369862" width="7.304347826086957" height="106.84931506849315" as="geometry" />
        </mxCell>
        <mxCell id="0Waxi0UtvHIm_t0E4VKd-4" value="" style="endArrow=classic;html=1;rounded=0;exitX=0;exitY=1;exitDx=0;exitDy=-5;exitPerimeter=0;" parent="fJazLv7FtPlTyMMEbzki-1" source="0Waxi0UtvHIm_t0E4VKd-3" edge="1">
          <mxGeometry width="50" height="50" relative="1" as="geometry">
            <mxPoint x="226.43478260869566" y="169.17808219178082" as="sourcePoint" />
            <mxPoint x="226.43478260869566" y="253.7671232876712" as="targetPoint" />
          </mxGeometry>
        </mxCell>
        <mxCell id="0Waxi0UtvHIm_t0E4VKd-5" value="5. Populate page with flights" style="edgeLabel;html=1;align=center;verticalAlign=middle;resizable=0;points=[];" parent="0Waxi0UtvHIm_t0E4VKd-4" connectable="0" vertex="1">
          <mxGeometry x="-0.3667" y="-1" relative="1" as="geometry">
            <mxPoint x="-86" as="offset" />
          </mxGeometry>
        </mxCell>
        <mxCell id="0Waxi0UtvHIm_t0E4VKd-6" value="" style="endArrow=classic;html=1;rounded=0;" parent="fJazLv7FtPlTyMMEbzki-1" edge="1">
          <mxGeometry width="50" height="50" relative="1" as="geometry">
            <mxPoint x="219.1304347826087" y="436.3013698630137" as="sourcePoint" />
            <mxPoint x="511.304347826087" y="436.3013698630137" as="targetPoint" />
          </mxGeometry>
        </mxCell>
        <mxCell id="0Waxi0UtvHIm_t0E4VKd-7" value="6. Pick flight and type of seat" style="edgeLabel;html=1;align=center;verticalAlign=middle;resizable=0;points=[];" parent="0Waxi0UtvHIm_t0E4VKd-6" connectable="0" vertex="1">
          <mxGeometry x="-0.3667" y="-1" relative="1" as="geometry">
            <mxPoint x="53" as="offset" />
          </mxGeometry>
        </mxCell>
        <mxCell id="0Waxi0UtvHIm_t0E4VKd-8" value="" style="endArrow=classic;html=1;rounded=0;" parent="fJazLv7FtPlTyMMEbzki-1" edge="1">
          <mxGeometry width="50" height="50" relative="1" as="geometry">
            <mxPoint x="664.6956521739131" y="516.4383561643835" as="sourcePoint" />
            <mxPoint x="788.8695652173913" y="516.4383561643835" as="targetPoint" />
          </mxGeometry>
        </mxCell>
        <mxCell id="0Waxi0UtvHIm_t0E4VKd-9" value="8. Query DB for seats" style="edgeLabel;html=1;align=center;verticalAlign=middle;resizable=0;points=[];" parent="0Waxi0UtvHIm_t0E4VKd-8" connectable="0" vertex="1">
          <mxGeometry x="-0.3667" y="-1" relative="1" as="geometry">
            <mxPoint x="33" as="offset" />
          </mxGeometry>
        </mxCell>
        <mxCell id="0Waxi0UtvHIm_t0E4VKd-10" value="" style="endArrow=classic;html=1;rounded=0;" parent="fJazLv7FtPlTyMMEbzki-1" edge="1">
          <mxGeometry width="50" height="50" relative="1" as="geometry">
            <mxPoint x="511.304347826087" y="480.8219178082192" as="sourcePoint" />
            <mxPoint x="664.6956521739131" y="480.8219178082192" as="targetPoint" />
          </mxGeometry>
        </mxCell>
        <mxCell id="0Waxi0UtvHIm_t0E4VKd-11" value="7. Request seats for flight" style="edgeLabel;html=1;align=center;verticalAlign=middle;resizable=0;points=[];" parent="0Waxi0UtvHIm_t0E4VKd-10" connectable="0" vertex="1">
          <mxGeometry x="-0.3667" y="-1" relative="1" as="geometry">
            <mxPoint x="47" as="offset" />
          </mxGeometry>
        </mxCell>
        <mxCell id="0Waxi0UtvHIm_t0E4VKd-12" style="edgeStyle=orthogonalEdgeStyle;rounded=0;orthogonalLoop=1;jettySize=auto;html=1;curved=0;" parent="fJazLv7FtPlTyMMEbzki-1" source="0Waxi0UtvHIm_t0E4VKd-14" target="0Waxi0UtvHIm_t0E4VKd-14" edge="1">
          <mxGeometry relative="1" as="geometry">
            <mxPoint x="569.7391304347825" y="752.213037316958" as="targetPoint" />
            <mxPoint x="807.1304347826087" y="467.4657534246575" as="sourcePoint" />
            <Array as="points">
              <mxPoint x="825.3913043478261" y="516.4383561643835" />
              <mxPoint x="825.3913043478261" y="552.054794520548" />
            </Array>
          </mxGeometry>
        </mxCell>
        <mxCell id="0Waxi0UtvHIm_t0E4VKd-13" value="9. Select &lt;br&gt;all &lt;br&gt;available &lt;br&gt;seats" style="edgeLabel;html=1;align=center;verticalAlign=middle;resizable=0;points=[];" parent="0Waxi0UtvHIm_t0E4VKd-12" connectable="0" vertex="1">
          <mxGeometry x="-0.1938" y="-2" relative="1" as="geometry">
            <mxPoint x="-3" y="-41" as="offset" />
          </mxGeometry>
        </mxCell>
        <mxCell id="0Waxi0UtvHIm_t0E4VKd-15" value="" style="endArrow=none;dashed=1;html=1;dashPattern=1 3;strokeWidth=2;rounded=0;entryX=0.5;entryY=1;entryDx=0;entryDy=0;" parent="fJazLv7FtPlTyMMEbzki-1" target="0Waxi0UtvHIm_t0E4VKd-14" edge="1">
          <mxGeometry width="50" height="50" relative="1" as="geometry">
            <mxPoint x="795.8086956521739" y="641.0958904109589" as="sourcePoint" />
            <mxPoint x="796.1081739130434" y="53.42465753424658" as="targetPoint" />
          </mxGeometry>
        </mxCell>
        <mxCell id="0Waxi0UtvHIm_t0E4VKd-14" value="" style="html=1;points=[[0,0,0,0,5],[0,1,0,0,-5],[1,0,0,0,5],[1,1,0,0,-5]];perimeter=orthogonalPerimeter;outlineConnect=0;targetShapes=umlLifeline;portConstraint=eastwest;newEdgeStyle={&quot;curved&quot;:0,&quot;rounded&quot;:0};" parent="fJazLv7FtPlTyMMEbzki-1" vertex="1">
          <mxGeometry x="792.5217391304349" y="480.8219178082192" width="7.304347826086957" height="106.84931506849315" as="geometry" />
        </mxCell>
        <mxCell id="0Waxi0UtvHIm_t0E4VKd-16" value="" style="endArrow=classic;html=1;rounded=0;" parent="fJazLv7FtPlTyMMEbzki-1" edge="1">
          <mxGeometry width="50" height="50" relative="1" as="geometry">
            <mxPoint x="788.8695652173913" y="578.7671232876713" as="sourcePoint" />
            <mxPoint x="511.304347826087" y="578.7671232876713" as="targetPoint" />
          </mxGeometry>
        </mxCell>
        <mxCell id="0Waxi0UtvHIm_t0E4VKd-17" value="10. Populate page with seat map" style="edgeLabel;html=1;align=center;verticalAlign=middle;resizable=0;points=[];" parent="0Waxi0UtvHIm_t0E4VKd-16" connectable="0" vertex="1">
          <mxGeometry x="-0.3667" y="-1" relative="1" as="geometry">
            <mxPoint x="-86" as="offset" />
          </mxGeometry>
        </mxCell>
        <mxCell id="0Waxi0UtvHIm_t0E4VKd-18" value="" style="endArrow=classic;html=1;rounded=0;" parent="fJazLv7FtPlTyMMEbzki-1" edge="1">
          <mxGeometry width="50" height="50" relative="1" as="geometry">
            <mxPoint x="219.1304347826087" y="623.2876712328767" as="sourcePoint" />
            <mxPoint x="511.304347826087" y="623.2876712328767" as="targetPoint" />
          </mxGeometry>
        </mxCell>
        <mxCell id="0Waxi0UtvHIm_t0E4VKd-19" value="11. Select seat" style="edgeLabel;html=1;align=center;verticalAlign=middle;resizable=0;points=[];" parent="0Waxi0UtvHIm_t0E4VKd-18" connectable="0" vertex="1">
          <mxGeometry x="-0.3667" y="-1" relative="1" as="geometry">
            <mxPoint x="53" as="offset" />
          </mxGeometry>
        </mxCell>
      </root>
    </mxGraphModel>
  </diagram>
</mxfile>
